HIERARCHY
ROOT joint_Root
{
	OFFSET 0.0 0.0 0.0
	CHANNELS 6 Xposition Yposition Zposition Zrotation Xrotation Yrotation 
	JOINT Hips
	{
		OFFSET -0.726466 93.3139 -2.00062
		CHANNELS 6 Xposition Yposition Zposition Zrotation Xrotation Yrotation 
		JOINT Spine
		{
			OFFSET 15.7357 0.0 0.0
			CHANNELS 6 Xposition Yposition Zposition Zrotation Xrotation Yrotation 
			JOINT Chest
			{
				OFFSET 8.98455 -0.406207 0.0
				CHANNELS 6 Xposition Yposition Zposition Zrotation Xrotation Yrotation 
				JOINT Neck
				{
					OFFSET 16.3773 0.0 0.0
					CHANNELS 6 Xposition Yposition Zposition Zrotation Xrotation Yrotation 
					JOINT Head
					{
						OFFSET 6.45672 0.0 0.0
						CHANNELS 6 Xposition Yposition Zposition Zrotation Xrotation Yrotation 
						End Site
						{
							OFFSET 0.0 0.0 0.0
						}
					}
				}
				JOINT Shoulder_L
				{
					OFFSET 12.9942 -0.242716 4.98039
					CHANNELS 6 Xposition Yposition Zposition Zrotation Xrotation Yrotation 
					JOINT UpperArm_L
					{
						OFFSET 5.34809 0.0 0.0
						CHANNELS 6 Xposition Yposition Zposition Zrotation Xrotation Yrotation 
						JOINT LowerArm_L
						{
							OFFSET 24.3286 1.87007e-05 0.0
							CHANNELS 6 Xposition Yposition Zposition Zrotation Xrotation Yrotation 
							JOINT Hand_L
							{
								OFFSET 22.2916 0.0 0.0
								CHANNELS 6 Xposition Yposition Zposition Zrotation Xrotation Yrotation 
								End Site
								{
									OFFSET 0.0 0.0 0.0
								}
							}
						}
					}
				}
				JOINT Shoulder_R
				{
					OFFSET 12.9945 -0.242716 -4.98039
					CHANNELS 6 Xposition Yposition Zposition Zrotation Xrotation Yrotation 
					JOINT UpperArm_R
					{
						OFFSET -5.34813 0.0 0.0
						CHANNELS 6 Xposition Yposition Zposition Zrotation Xrotation Yrotation 
						JOINT LowerArm_R
						{
							OFFSET -24.3289 0.000322201 0.0
							CHANNELS 6 Xposition Yposition Zposition Zrotation Xrotation Yrotation 
							JOINT Hand_R
							{
								OFFSET -22.2915 -0.000108084 0.0
								CHANNELS 6 Xposition Yposition Zposition Zrotation Xrotation Yrotation 
								End Site
								{
									OFFSET 0.0 0.0 0.0
								}
							}
						}
					}
				}
			}
		}
		JOINT UpperLeg_L
		{
			OFFSET -2.19248 -6.46944 0.0
			CHANNELS 6 Xposition Yposition Zposition Zrotation Xrotation Yrotation 
			JOINT LowerLeg_L
			{
				OFFSET 39.0811 0.0 -1.23785e-05
				CHANNELS 6 Xposition Yposition Zposition Zrotation Xrotation Yrotation 
				JOINT Foot_L
				{
					OFFSET 40.9854 0.0 -1.26872e-05
					CHANNELS 6 Xposition Yposition Zposition Zrotation Xrotation Yrotation 
					JOINT Toes_L
					{
						OFFSET 11.7543 0.0 0.0
						CHANNELS 6 Xposition Yposition Zposition Zrotation Xrotation Yrotation 
						End Site
						{
							OFFSET 0.0 0.0 0.0
						}
					}
				}
			}
		}
		JOINT UpperLeg_R
		{
			OFFSET -2.19251 6.46944 0.0
			CHANNELS 6 Xposition Yposition Zposition Zrotation Xrotation Yrotation 
			JOINT LowerLeg_R
			{
				OFFSET -39.0811 -0.00228153 -0.0401928
				CHANNELS 6 Xposition Yposition Zposition Zrotation Xrotation Yrotation 
				JOINT Foot_R
				{
					OFFSET -40.9854 0.0 0.0
					CHANNELS 6 Xposition Yposition Zposition Zrotation Xrotation Yrotation 
					JOINT Toes_R
					{
						OFFSET -11.7543 0.0 0.0
						CHANNELS 6 Xposition Yposition Zposition Zrotation Xrotation Yrotation 
						End Site
						{
							OFFSET 0.0 0.0 0.0
						}
					}
				}
			}
		}
	}
}
MOTION
Frames:	8
Frame Time:	0.0333333
0.000000 0.000000 0.000000 0.000000 0.000000 -0.000000 -5.941250 91.603300 -449.162000 88.912400 -1.144350 -11.421000 15.735700 0.000005 -0.000001 110.961000 80.620900 -111.987000 8.984550 -0.406207 -0.000000 9.860610 6.651020 -2.626400 16.377300 -0.000001 -0.000001 1.738980 -2.324350 0.961032 6.456720 -0.000001 -0.000000 -3.975910 -7.093040 0.616532 12.994200 -0.242716 4.980390 -87.272000 -6.655860 -67.652000 5.348090 -0.000007 -0.000001 -79.751600 25.979900 24.992300 24.328600 0.000019 0.000005 -8.567380 -3.944830 -65.456300 22.291600 -0.000001 0.000005 6.498440 5.654240 -15.434700 12.994500 -0.242716 -4.980390 89.729000 0.790981 -71.088000 -5.348130 -0.000001 -0.000004 -53.654100 30.035300 -35.341900 -24.328900 0.000322 -0.000009 -5.839530 1.982070 -108.678000 -22.291500 -0.000108 -0.000004 18.672300 5.577080 -10.048900 -2.192480 -6.469440 -0.000000 175.544000 -1.985000 -38.922500 39.081100 -0.000007 -0.000012 0.035288 -0.044705 38.284300 40.985400 -0.000006 -0.000013 6.574650 -5.555740 -69.528500 11.754300 -0.000000 0.000003 -0.007831 -0.086653 -20.105200 -2.192510 6.469440 -0.000001 174.218000 6.941990 -174.870000 -39.081100 -0.002282 -0.040193 0.065731 -0.099311 32.156300 -40.985400 0.000008 0.000006 -1.850500 6.741320 -32.486500 -11.754300 -0.000006 -0.000006 -0.026690 -0.201872 -24.835800
0.000000 0.000000 0.000000 0.000000 0.000000 -0.000000 -5.724330 89.903100 -442.111000 87.699300 -1.376620 -10.780700 15.735700 0.000005 -0.000001 110.708000 80.856800 -111.623000 8.984550 -0.406207 -0.000000 9.434960 6.416240 -2.360960 16.377300 -0.000001 -0.000001 1.850130 -2.408820 1.203580 6.456720 -0.000001 -0.000000 -3.622040 -7.072550 1.066720 12.994200 -0.242716 4.980390 -87.659600 -5.450190 -66.716400 5.348090 -0.000007 -0.000001 -78.567600 24.839800 19.741400 24.328600 0.000019 0.000005 -8.268210 -3.288900 -68.457900 22.291600 -0.000001 0.000005 6.629020 5.654480 -15.459300 12.994500 -0.242716 -4.980390 89.713600 0.817810 -70.700500 -5.348130 -0.000001 -0.000004 -57.399000 33.959700 -27.397100 -24.328900 0.000322 -0.000009 -3.868020 0.784338 -101.406000 -22.291500 -0.000108 -0.000004 16.797700 5.543100 -8.359940 -2.192480 -6.469440 -0.000000 177.758000 -2.347930 -36.530400 39.081100 -0.000007 -0.000012 -0.096135 0.134452 35.565700 40.985400 -0.000006 -0.000013 3.667130 -6.810920 -66.979100 11.754300 -0.000000 0.000003 -0.010327 -0.106077 -20.899100 -2.192510 6.469440 -0.000001 176.695000 1.291730 -177.843000 -39.081100 -0.002282 -0.040193 0.042992 -0.039983 44.816000 -40.985400 0.000008 0.000006 -1.074460 0.489881 -35.543200 -11.754300 -0.000006 -0.000006 -0.024416 -0.190625 -24.370700
0.000000 0.000000 0.000000 0.000000 0.000000 -0.000000 -5.098120 87.397500 -435.037000 88.755400 -0.645411 -10.840400 15.735700 0.000005 -0.000001 104.786000 81.551000 -106.226000 8.984550 -0.406207 -0.000000 8.646160 4.280480 -3.203570 16.377300 -0.000001 -0.000001 2.143480 -2.647160 1.532680 6.456720 -0.000001 -0.000000 -3.558970 -6.258050 1.566860 12.994200 -0.242716 4.980390 -88.364400 -3.731320 -66.307500 5.348090 -0.000007 -0.000001 -76.874500 23.694000 13.402800 24.328600 0.000019 0.000005 -7.513080 -2.491110 -71.760800 22.291600 -0.000001 0.000005 7.046650 5.663500 -16.466300 12.994500 -0.242716 -4.980390 89.473700 1.446530 -70.005100 -5.348130 -0.000001 -0.000004 -59.975600 36.722100 -20.025600 -24.328900 0.000322 -0.000009 -1.021940 0.034715 -91.711800 -22.291500 -0.000108 -0.000004 14.698900 5.493540 -6.260230 -2.192480 -6.469440 -0.000000 176.439000 -1.465860 -37.896100 39.081100 -0.000007 -0.000012 -0.485629 0.469508 45.968100 40.985400 -0.000006 -0.000013 3.510620 -6.765440 -69.370700 11.754300 -0.000000 0.000003 -0.004017 -0.051621 -18.676600 -2.192510 6.469440 -0.000001 175.387000 0.808506 175.903000 -39.081100 -0.002282 -0.040193 0.056227 -0.029041 61.295700 -40.985400 0.000008 0.000006 -1.326240 -2.484870 -38.835400 -11.754300 -0.000006 -0.000006 -0.026155 -0.199267 -24.728100
0.000000 0.000000 0.000000 0.000000 0.000000 -0.000000 -4.688250 84.790200 -428.512000 90.697900 1.936240 -9.096490 15.735700 0.000005 -0.000001 93.538900 81.407500 -95.607800 8.984550 -0.406207 -0.000000 9.409360 1.025080 -4.218810 16.377300 -0.000001 -0.000001 1.186370 -3.415420 1.492220 6.456720 -0.000001 -0.000000 -2.657190 -5.492790 2.787350 12.994200 -0.242716 4.980390 -89.340900 -1.557070 -67.066100 5.348090 -0.000007 -0.000001 -73.353000 23.708500 4.418690 24.328600 0.000019 0.000005 -8.651020 -2.226530 -75.671900 22.291600 -0.000001 0.000005 7.682800 5.673550 -17.958700 12.994500 -0.242716 -4.980390 88.832200 3.061920 -69.116500 -5.348130 -0.000001 -0.000004 -62.623800 37.094700 -11.531700 -24.328900 0.000322 -0.000009 3.605160 0.548496 -81.458200 -22.291500 -0.000108 -0.000004 14.104300 5.475200 -5.565370 -2.192480 -6.469440 -0.000000 174.656000 1.308320 -35.335300 39.081100 -0.000007 -0.000012 -0.710172 0.509620 54.338700 40.985400 -0.000006 -0.000013 2.804980 -7.580230 -78.353200 11.754300 -0.000000 0.000003 -0.000010 -0.000141 -16.583100 -2.192510 6.469440 -0.000001 174.268000 1.952250 168.740000 -39.081100 -0.002282 -0.040193 0.035288 -0.006345 78.911000 -40.985400 0.000008 0.000006 0.543361 -3.683610 -40.873100 -11.754300 -0.000006 -0.000006 -0.026927 -0.203017 -24.883300
0.000000 0.000000 0.000000 0.000000 0.000000 -0.000000 -4.479150 83.444800 -422.416000 92.431400 3.904920 -7.691840 15.735700 0.000005 -0.000001 87.614100 80.811700 -90.233000 8.984550 -0.406207 -0.000000 10.581800 -0.824051 -5.158560 16.377300 -0.000001 -0.000001 0.424658 -4.281840 0.834966 6.456720 -0.000001 -0.000000 -2.595620 -5.545100 3.955380 12.994200 -0.242716 4.980390 -89.971300 -0.073439 -68.691600 5.348090 -0.000007 -0.000001 -67.793800 25.936500 -9.683060 24.328600 0.000019 0.000005 -11.001800 -2.370090 -77.990800 22.291600 -0.000001 0.000005 9.194480 5.681410 -20.035700 12.994500 -0.242716 -4.980390 88.135700 4.718210 -68.411100 -5.348130 -0.000001 -0.000004 -65.909500 34.344700 -1.235050 -24.328900 0.000322 -0.000009 7.154050 2.041480 -74.158500 -22.291500 -0.000108 -0.000004 17.231000 5.505920 -6.773350 -2.192480 -6.469440 -0.000000 172.882000 -1.346600 -29.909200 39.081100 -0.000007 -0.000012 -0.819565 0.540821 56.582100 40.985400 -0.000006 -0.000013 4.248750 -4.144420 -84.541300 11.754300 -0.000000 0.000003 -0.000043 -0.000499 -16.597000 -2.192510 6.469440 -0.000001 173.950000 2.211350 159.735000 -39.081100 -0.002282 -0.040193 -0.050590 -0.002461 92.521800 -40.985400 0.000008 0.000006 2.304230 -3.874150 -43.659400 -11.754300 -0.000006 -0.000006 -0.027879 -0.207574 -25.072000
0.000000 0.000000 0.000000 0.000000 0.000000 -0.000000 -4.670280 83.280300 -416.208000 90.832400 6.012540 -7.644860 15.735700 0.000005 -0.000001 82.557700 80.905000 -84.372400 8.984550 -0.406207 -0.000000 10.241800 -2.379740 -3.414180 16.377300 -0.000001 -0.000001 0.680098 -4.488420 0.350625 6.456720 -0.000001 -0.000000 -2.471360 -4.280610 3.015060 12.994200 -0.242716 4.980390 -89.418100 -1.584820 -69.823000 5.348090 -0.000007 -0.000001 -66.611700 25.945200 -20.910700 24.328600 0.000019 0.000005 -6.999510 -0.924225 -82.541000 22.291600 -0.000001 0.000005 10.854200 5.682110 -21.143700 12.994500 -0.242716 -4.980390 88.374100 3.872500 -67.201400 -5.348130 -0.000001 -0.000004 -69.012400 33.440300 7.607440 -24.328900 0.000322 -0.000009 1.610120 0.510753 -72.463500 -22.291500 -0.000108 -0.000004 18.182100 5.513090 -7.074690 -2.192480 -6.469440 -0.000000 175.602000 -1.537110 -24.157300 39.081100 -0.000007 -0.000012 -0.870348 0.611046 54.931200 40.985400 -0.000006 -0.000013 4.257500 -2.393510 -88.673800 11.754300 -0.000000 0.000003 -0.000052 -0.000589 -16.600400 -2.192510 6.469440 -0.000001 177.530000 2.622100 149.898000 -39.081100 -0.002282 -0.040193 -0.122397 -0.019944 98.975400 -40.985400 0.000008 0.000006 3.363510 -4.544500 -47.168900 -11.754300 -0.000006 -0.000006 -0.025777 -0.197415 -24.651400
0.000000 0.000000 0.000000 0.000000 0.000000 -0.000000 -4.931950 84.557900 -409.380000 88.175900 8.443890 -7.802240 15.735700 0.000005 -0.000001 74.163400 80.985100 -74.623000 8.984550 -0.406207 -0.000000 9.585690 -4.898710 -0.507823 16.377300 -0.000001 -0.000001 0.869851 -4.123770 -0.390274 6.456720 -0.000001 -0.000000 -2.063970 -1.962830 1.975630 12.994200 -0.242716 4.980390 -88.573800 -4.101590 -70.805200 5.348090 -0.000007 -0.000001 -68.562400 24.697200 -26.151800 24.328600 0.000019 0.000005 -10.592600 0.068833 -90.329200 22.291600 -0.000001 0.000005 12.641800 5.682030 -21.306500 12.994500 -0.242716 -4.980390 88.811900 2.672580 -66.018800 -5.348130 -0.000001 -0.000004 -70.079700 35.496000 13.782800 -24.328900 0.000322 -0.000009 -3.864960 -0.957300 -76.089100 -22.291500 -0.000108 -0.000004 17.264500 5.524590 -7.563270 -2.192480 -6.469440 -0.000000 179.464000 -1.343770 -15.585100 39.081100 -0.000007 -0.000012 -0.354689 0.331825 46.908300 40.985400 -0.000006 -0.000013 6.782050 -1.601500 -89.833900 11.754300 -0.000000 0.000003 -0.806648 -1.009150 -15.949300 -2.192510 6.469440 -0.000001 -177.645000 3.130860 142.802000 -39.081100 -0.002282 -0.040193 -0.139683 -0.017647 97.000000 -40.985400 0.000008 0.000006 4.181840 -7.231440 -51.950200 -11.754300 -0.000006 -0.000006 -0.024511 -0.191106 -24.390600
0.000000 0.000000 0.000000 0.000000 0.000000 -0.000000 -5.186340 87.069600 -402.006000 84.413600 9.569440 -8.037720 15.735700 0.000005 -0.000001 68.101600 81.170600 -66.904800 8.984550 -0.406207 -0.000000 8.730900 -6.543630 2.893480 16.377300 -0.000001 -0.000001 1.226070 -3.656480 -0.775396 6.456720 -0.000001 -0.000000 -1.751870 0.327601 1.055270 12.994200 -0.242716 4.980390 -88.102000 -5.651940 -71.401200 5.348090 -0.000007 -0.000001 -69.297800 24.600900 -28.403000 24.328600 0.000019 0.000005 -16.467500 2.407320 -98.079500 22.291600 -0.000001 0.000005 14.831400 5.681980 -21.155500 12.994500 -0.242716 -4.980390 89.420400 1.262780 -65.331700 -5.348130 -0.000001 -0.000004 -71.300200 37.219600 18.166200 -24.328900 0.000322 -0.000009 -2.969890 -0.557322 -79.385000 -22.291500 -0.000108 -0.000004 15.353400 5.540850 -8.288100 -2.192480 -6.469440 -0.000000 -176.032000 -0.062725 -6.273620 39.081100 -0.000007 -0.000012 0.038826 -0.055330 35.057100 40.985400 -0.000006 -0.000013 8.459250 -2.081280 -81.523200 11.754300 -0.000000 0.000003 -2.633360 -2.958200 -21.769600 -2.192510 6.469440 -0.000001 -172.332000 1.884340 138.989000 -39.081100 -0.002282 -0.040193 -0.119039 0.005775 87.258700 -40.985400 0.000008 0.000006 3.805900 -10.806300 -56.519200 -11.754300 -0.000006 -0.000006 -0.021675 -0.176395 -23.783200
